<svg width="151" height="151" viewBox="0 0 151 151" fill="none" xmlns="http://www.w3.org/2000/svg">
<path d="M47.05 92.675C46.1741 92.675 45.4625 93.3865 45.4625 94.2625V116.487C45.4625 117.363 46.1741 118.075 47.05 118.075H58.1625V119.662C58.1625 120.538 58.8741 121.25 59.75 121.25H91.5C92.3759 121.25 93.0875 120.538 93.0875 119.662V118.075H104.2C105.076 118.075 105.787 117.363 105.787 116.487V94.2625C105.787 93.3865 105.076 92.675 104.2 92.675H93.0875V72.0375C93.0875 71.1615 92.3759 70.45 91.5 70.45H88.325V65.6875C88.325 63.9363 86.9012 62.5125 85.15 62.5125H77.2125V57.75H74.0375V62.5125H66.1C64.3488 62.5125 62.925 63.9363 62.925 65.6875V70.45H59.75C58.8741 70.45 58.1625 71.1615 58.1625 72.0375V92.675H47.05ZM102.612 95.85V114.9H93.0875V95.85H102.612ZM78.8 118.075H72.45V113.312H78.8V118.075ZM66.1 65.6875H85.15V70.45H66.1V65.6875ZM61.3375 73.625H89.9125V118.075H81.975V111.725C81.975 110.849 81.2635 110.137 80.3875 110.137H70.8625C69.9865 110.137 69.275 110.849 69.275 111.725V118.075H61.3375V73.625ZM48.6375 114.9V95.85H58.1625V114.9H48.6375Z" fill="white"/>
<path d="M66.1 86.3252H85.15V89.5002H66.1V86.3252Z" fill="white"/>
<path d="M66.1 78.3877H85.15V81.5627H66.1V78.3877Z" fill="white"/>
<path d="M66.1 94.2627H85.15V97.4377H66.1V94.2627Z" fill="white"/>
<path d="M66.1 102.2H85.15V105.375H66.1V102.2Z" fill="white"/>
<path d="M96.2625 99.0249H99.4375V102.2H96.2625V99.0249Z" fill="white"/>
<path d="M96.2625 105.375H99.4375V108.55H96.2625V105.375Z" fill="white"/>
<path d="M51.8125 99.0249H54.9875V102.2H51.8125V99.0249Z" fill="white"/>
<path d="M51.8125 105.375H54.9875V108.55H51.8125V105.375Z" fill="white"/>
<path d="M75.625 54.575C83.5023 54.575 89.9125 48.1648 89.9125 40.2875C89.9125 32.4102 83.5023 26 75.625 26C67.7477 26 61.3375 32.4102 61.3375 40.2875C61.3375 48.1648 67.7477 54.575 75.625 54.575ZM69.3147 49.4233C69.516 46.9819 71.545 45.05 74.0375 45.05H77.2125C79.705 45.05 81.7341 46.9819 81.9353 49.4233C80.1415 50.6664 77.968 51.4 75.625 51.4C73.282 51.4 71.1083 50.6665 69.3147 49.4233ZM75.625 41.875C73.8738 41.875 72.45 40.4512 72.45 38.7C72.45 36.9488 73.8738 35.525 75.625 35.525C77.3762 35.525 78.8 36.9488 78.8 38.7C78.8 40.4512 77.3762 41.875 75.625 41.875ZM75.625 29.175C81.7524 29.175 86.7375 34.1601 86.7375 40.2875C86.7375 42.7468 85.9246 45.0153 84.566 46.8579C83.8133 44.9941 82.374 43.4937 80.5626 42.6434C81.4322 41.5562 81.975 40.197 81.975 38.7002C81.975 35.1984 79.1268 32.3502 75.625 32.3502C72.1233 32.3502 69.275 35.1984 69.275 38.7002C69.275 40.197 69.8179 41.5562 70.6882 42.6434C68.8767 43.4945 67.4366 44.9941 66.6848 46.8579C65.3255 45.0153 64.5125 42.7468 64.5125 40.2875C64.5125 34.1601 69.4977 29.175 75.625 29.175H75.625Z" fill="white"/>
<path d="M108.963 38.7002C101.085 38.7002 94.675 45.1104 94.675 52.9877C94.675 60.865 101.085 67.2752 108.963 67.2752C116.84 67.2752 123.25 60.865 123.25 52.9877C123.25 45.1104 116.84 38.7002 108.963 38.7002ZM102.652 62.1244C102.854 59.683 104.883 57.7511 107.375 57.7511H110.55C113.042 57.7511 115.072 59.683 115.273 62.1244C113.479 63.3675 111.305 64.1011 108.963 64.1011C106.62 64.1011 104.446 63.3676 102.652 62.1244ZM108.963 54.5761C107.211 54.5761 105.788 53.1523 105.788 51.4011C105.788 49.6499 107.211 48.2261 108.963 48.2261C110.714 48.2261 112.138 49.6499 112.138 51.4011C112.138 53.1523 110.714 54.5761 108.963 54.5761ZM117.903 59.559C117.151 57.6952 115.711 56.1948 113.9 55.3445C114.77 54.2573 115.313 52.8981 115.313 51.4013C115.313 47.8995 112.464 45.0513 108.963 45.0513C105.461 45.0513 102.613 47.8995 102.613 51.4013C102.613 52.8981 103.155 54.2573 104.026 55.3445C102.214 56.1956 100.774 57.6952 100.022 59.559C98.663 57.7165 97.8501 55.4479 97.8501 52.9886C97.8501 46.8612 102.835 41.8761 108.963 41.8761C115.09 41.8761 120.075 46.8612 120.075 52.9886C120.075 55.4479 119.262 57.7165 117.904 59.559H117.903Z" fill="white"/>
<path d="M42.2875 67.2752C50.1648 67.2752 56.575 60.865 56.575 52.9877C56.575 45.1104 50.1648 38.7002 42.2875 38.7002C34.4102 38.7002 28 45.1104 28 52.9877C28 60.865 34.4102 67.2752 42.2875 67.2752ZM35.9772 62.1235C36.1785 59.682 38.2075 57.7502 40.7 57.7502H43.875C46.3675 57.7502 48.3966 59.682 48.5978 62.1235C46.804 63.3666 44.6305 64.1002 42.2875 64.1002C39.9445 64.1002 37.7708 63.3667 35.9772 62.1235ZM42.2875 54.5752C40.5363 54.5752 39.1125 53.1514 39.1125 51.4002C39.1125 49.649 40.5363 48.2252 42.2875 48.2252C44.0387 48.2252 45.4625 49.649 45.4625 51.4002C45.4625 53.1514 44.0387 54.5752 42.2875 54.5752ZM42.2875 41.8752C48.4149 41.8752 53.4 46.8603 53.4 52.9877C53.4 55.447 52.5871 57.7155 51.2285 59.5581C50.4758 57.6943 49.0365 56.1939 47.2251 55.3435C48.0947 54.2564 48.6375 52.8972 48.6375 51.4004C48.6375 47.8986 45.7893 45.0504 42.2875 45.0504C38.7858 45.0504 35.9375 47.8986 35.9375 51.4004C35.9375 52.8972 36.4804 54.2564 37.3507 55.3435C35.5392 56.1947 34.0991 57.6943 33.3473 59.5581C31.988 57.7155 31.1751 55.447 31.1751 52.9877C31.1751 46.8603 36.1602 41.8752 42.2876 41.8752H42.2875Z" fill="white"/>
<path d="M32.7625 116.42V121.251H35.9375V116.42C38.0693 116.187 40.7 115.114 40.7 110.138C40.7 105.706 38.5187 97.4385 34.35 97.4385C30.1813 97.4385 28 105.706 28 110.138C28 115.114 30.6307 116.187 32.7625 116.42ZM34.3472 100.613C35.345 100.744 37.5251 105.6 37.5251 110.138C37.5251 113.192 36.6094 113.313 34.3501 113.313C32.0907 113.313 31.1751 113.192 31.1751 110.138C31.1751 105.6 33.3551 100.744 34.3472 100.613Z" fill="white"/>
<path d="M116.9 97.4375C112.731 97.4375 110.55 105.705 110.55 110.137C110.55 115.113 113.181 116.186 115.312 116.419V121.25H118.487V116.419C120.619 116.186 123.25 115.113 123.25 110.137C123.25 105.705 121.069 97.4375 116.9 97.4375ZM116.9 113.312C114.641 113.312 113.725 113.191 113.725 110.137C113.725 105.599 115.905 100.743 116.897 100.612C117.895 100.743 120.075 105.599 120.075 110.137C120.075 113.191 119.159 113.312 116.9 113.312Z" fill="white"/>
</svg>
