<svg width="151" height="151" viewBox="0 0 151 151" fill="none" xmlns="http://www.w3.org/2000/svg">
<path d="M48.6347 101.591C55.433 101.591 61.9541 98.8513 66.7618 93.9739C71.5695 89.0973 74.2702 82.4825 74.271 75.5849C74.271 68.6873 71.5703 62.0725 66.7626 57.1951C61.9548 52.3177 55.4345 49.5779 48.6355 49.5771C41.8372 49.5771 35.3161 52.3169 30.5084 57.1943C25.7015 62.0717 23 68.6865 23 75.5841C23.0077 82.4787 25.7115 89.0895 30.5169 93.9645C35.3222 98.8403 41.838 101.583 48.6347 101.591ZM48.6347 52.2131C54.7445 52.2131 60.6042 54.6749 64.9244 59.0585C69.2454 63.4413 71.672 69.3859 71.672 75.5843C71.6728 81.7827 69.2454 87.7273 64.9252 92.1101C60.6042 96.4937 54.7445 98.9561 48.6347 98.9561C42.5248 98.9561 36.6652 96.4937 32.345 92.1107C28.024 87.7271 25.5974 81.7825 25.5974 75.5841C25.6043 69.3881 28.0338 63.4481 32.3527 59.0661C36.6713 54.6849 42.527 52.2207 48.6347 52.2137V52.2131Z" fill="white"/>
<path d="M48.6354 95.4949C55.6138 95.4926 62.0673 91.7331 65.5851 85.6183C69.1037 79.5043 69.1583 71.9551 65.7283 65.7887C65.5612 65.4809 65.2786 65.2536 64.9451 65.1583C64.6117 65.0622 64.2536 65.1059 63.9517 65.2793C63.6499 65.4528 63.4288 65.7411 63.338 66.0809C63.2471 66.42 63.2941 66.7825 63.4681 67.0871C66.1025 71.8301 66.3752 77.5559 64.2043 82.5347C62.0334 87.5129 57.674 91.1597 52.4428 92.3729C47.2116 93.5862 41.7223 92.2229 37.6356 88.6947C33.548 85.1673 31.3416 79.8901 31.6836 74.4565C32.0256 69.0237 34.875 64.0737 39.3714 61.1019C43.8673 58.1301 49.4827 57.4855 54.5191 59.3637C55.1922 59.6152 55.9391 59.2652 56.1871 58.5824C56.4351 57.8996 56.0901 57.1418 55.417 56.8902C49.9656 54.8558 43.9064 55.3746 38.8686 58.3074C33.8314 61.2402 30.3322 66.2856 29.3133 72.0864C28.2945 77.8872 29.8601 83.8482 33.589 88.366C37.3177 92.8832 42.8269 95.4934 48.6357 95.495L48.6354 95.4949Z" fill="white"/>
<path d="M59.9417 62.6613C60.1981 62.8996 60.5377 63.023 60.8851 63.0051C61.2324 62.9871 61.5581 62.8277 61.7884 62.5644C62.0194 62.3012 62.1364 61.9543 62.1141 61.6019C62.091 61.2504 61.9301 60.9223 61.6667 60.6918C61.4934 60.5347 61.3171 60.3816 61.1376 60.2308C60.584 59.7762 59.7738 59.8582 59.3195 60.4144C58.8659 60.9715 58.9383 61.7941 59.4812 62.2605C59.6375 62.3918 59.7907 62.5254 59.9417 62.6613L59.9417 62.6613Z" fill="white"/>
<path d="M86.2935 63.8233C86.1872 67.6381 87.0982 71.4109 88.9311 74.7437C90.7631 78.0765 93.4492 80.8461 96.7044 82.7585C97.0563 82.971 97.272 83.3561 97.2697 83.7725V92.7873C97.272 95.1217 98.1868 97.3591 99.814 99.0091C101.44 100.66 103.646 101.588 105.946 101.591H108.38C110.68 101.588 112.885 100.66 114.513 99.0091C116.139 97.3591 117.054 95.1215 117.057 92.7873V88.3169C117.057 87.9677 116.92 87.6326 116.676 87.3857C116.433 87.1388 116.103 86.9998 115.758 86.9998H111.324V83.1716C111.323 82.0512 111.853 80.9982 112.749 80.3434C115.418 78.4066 118.789 75.1536 119.689 70.6254C119.715 70.4785 120.312 66.984 118.951 63.7676C118.09 61.7308 116.371 60.1965 114.272 59.5871C112.199 58.9645 109.961 59.3215 108.177 60.5575C107.592 60.9715 107.445 61.7871 107.849 62.384C108.253 62.9817 109.057 63.1356 109.648 62.7301C110.792 61.9418 112.224 61.7168 113.548 62.1184C114.901 62.509 116.009 63.4965 116.564 64.8074C117.611 67.28 117.138 70.1316 117.138 70.1316C116.371 73.9816 113.112 76.8386 111.238 78.198C109.661 79.3488 108.726 81.1996 108.726 83.1698V86.9994H105.864V83.1712C105.865 81.2001 104.93 79.3502 103.353 78.1994C101.642 76.9885 100.158 75.4784 98.9699 73.7384C98.5749 73.1314 97.7686 72.9634 97.1702 73.3642C96.5719 73.7657 96.4063 74.5829 96.8014 75.19C98.1652 77.1986 99.8717 78.944 101.841 80.3432C102.737 80.9978 103.268 82.051 103.266 83.1714V86.9996H99.867V83.7714C99.8678 82.4159 99.1601 81.162 98.0073 80.4768C95.1564 78.8018 92.8045 76.3768 91.1997 73.458C89.595 70.5392 88.797 67.2354 88.8902 63.894C89.159 54.098 97.2388 46.0174 106.902 45.8808C111.795 45.8105 116.511 47.7331 119.996 51.2184C123.48 54.7036 125.442 59.4606 125.442 64.4246C125.429 71.0472 121.948 77.1628 116.302 80.4864C115.155 81.1715 114.453 82.4223 114.458 83.7724C114.458 84.4997 115.039 85.0903 115.757 85.0903C116.474 85.0903 117.055 84.4997 117.055 83.7724C117.049 83.363 117.257 82.9802 117.602 82.7677C124.05 78.9723 128.025 71.9873 128.04 64.4247C128.032 56.9341 124.126 50.0043 117.765 46.2005C111.405 42.3959 103.537 42.2817 97.0733 45.9013C90.6092 49.5201 86.5092 56.3341 86.292 63.8209L86.2935 63.8233ZM99.8664 89.6353H114.459V92.7877C114.457 94.4228 113.816 95.9909 112.676 97.1471C111.536 98.3033 109.991 98.9541 108.379 98.9557H105.946C104.334 98.9541 102.789 98.3033 101.649 97.1471C100.509 95.9908 99.8687 94.4229 99.8664 92.7877V89.6353Z" fill="white"/>
<path d="M23.6341 43.433L24.552 43.99C25.7449 44.7104 26.6236 45.8627 27.0118 47.2142L28.1808 51.2642V51.265C28.3818 51.9635 29.1034 52.3642 29.7918 52.1596C30.1222 52.0619 30.401 51.8346 30.5665 51.5275C30.7321 51.2213 30.7706 50.8603 30.6743 50.5252L29.5054 46.4736C29.0302 44.8197 28.0537 43.3596 26.7138 42.3018C27.9852 41.2979 28.9309 39.9314 29.4298 38.3784C29.9643 39.9518 30.9615 41.3206 32.2861 42.3018C31.7354 42.7112 31.2387 43.1901 30.8067 43.7276C30.3531 44.2916 30.4355 45.1221 30.9915 45.5822C31.5475 46.0424 32.3662 45.9588 32.8197 45.3947C33.2679 44.8377 33.8178 44.3736 34.44 44.0291L35.4711 43.4565C35.8878 43.2252 36.1465 42.7822 36.1465 42.301C36.1465 41.819 35.8878 41.376 35.4711 41.1448L34.44 40.5721C33.157 39.8651 32.2068 38.6659 31.8008 37.2431L30.6734 33.3415C30.5117 32.779 30.0042 32.3931 29.4267 32.3931C28.8499 32.3931 28.3416 32.779 28.1799 33.3415L27.0109 37.3915V37.3907C26.6235 38.7431 25.7441 39.8953 24.5519 40.6157L23.634 41.1704C23.2412 41.4087 23.001 41.8384 23.001 42.3016C23.001 42.7657 23.2413 43.1954 23.634 43.4329L23.6341 43.433Z" fill="white"/>
<path d="M80.4619 101.699C80.0083 102.263 80.0914 103.094 80.6467 103.554C81.2027 104.015 82.0213 103.93 82.4756 103.366C82.9231 102.809 83.4737 102.345 84.0959 102.001L85.1271 101.428V101.429C85.5437 101.198 85.8024 100.754 85.8024 100.273C85.8024 99.7905 85.5437 99.3476 85.1271 99.1163L84.0959 98.5445C82.8129 97.8366 81.8619 96.6382 81.456 95.2149L80.3301 91.3103H80.3309C80.1684 90.7485 79.6609 90.3618 79.0841 90.3618C78.5065 90.3618 77.9991 90.7485 77.8373 91.3103L76.6699 95.3603C76.2817 96.7118 75.4031 97.8643 74.2101 98.5853L73.2922 99.1415C72.8994 99.379 72.6592 99.8087 72.6592 100.273C72.6592 100.737 72.8995 101.167 73.2922 101.404L74.2101 101.96C75.403 102.681 76.2817 103.834 76.6699 105.185L77.8373 109.235C78.0383 109.934 78.7599 110.334 79.4484 110.13C79.7787 110.032 80.0575 109.805 80.2231 109.499C80.3887 109.191 80.4272 108.831 80.3309 108.495L79.1634 104.444C78.6883 102.79 77.711 101.33 76.3711 100.271C77.6417 99.2673 78.5882 97.9008 79.0864 96.347C79.6216 97.9204 80.6188 99.2908 81.9441 100.271C81.392 100.682 80.8945 101.162 80.4617 101.699L80.4619 101.699Z" fill="white"/>
<path d="M50.3762 110.101C49.8102 109.654 48.9947 109.758 48.5542 110.333C48.1137 110.907 48.2153 111.735 48.7813 112.182L49.0763 112.412C49.6461 112.85 50.4586 112.739 50.8929 112.162C51.3272 111.586 51.2202 110.761 50.6542 110.318L50.3762 110.101Z" fill="white"/>
<path d="M100.358 36.9057L100.635 37.1221C101.201 37.5604 102.01 37.4541 102.448 36.8838C102.885 36.3127 102.788 35.4916 102.23 35.0424L101.935 34.812C101.661 34.5932 101.313 34.4948 100.968 34.5393C100.623 34.583 100.311 34.7659 100.099 35.0463C99.8879 35.3268 99.7962 35.6815 99.8447 36.0307C99.8933 36.3799 100.078 36.6948 100.358 36.9049L100.358 36.9057Z" fill="white"/>
<path d="M48.6177 85.783C48.9619 85.783 49.2923 85.644 49.5356 85.3971C49.7798 85.1502 49.9161 84.815 49.9161 84.465V83.4768C51.3661 83.1432 52.5666 82.1182 53.139 80.726C53.7111 79.3338 53.5833 77.747 52.7978 76.4674C52.0115 75.1877 50.6631 74.3728 49.1792 74.2806C49.1007 74.2759 48.8835 74.2704 48.6671 74.2649C48.4931 74.261 48.319 74.2571 48.252 74.254C47.2378 74.1884 46.4338 73.3602 46.3838 72.3306C46.3337 71.3009 47.0538 70.3977 48.0572 70.2314C48.2143 70.2071 48.3737 70.1946 48.5331 70.1931C48.5408 70.1923 48.5478 70.1923 48.5555 70.1931C48.577 70.1931 48.5978 70.1946 48.6201 70.1946C49.3841 70.1642 50.0856 70.6173 50.3821 71.3321C50.4968 71.6618 50.7364 71.9314 51.0475 72.0821C51.3578 72.2329 51.7151 72.2517 52.0401 72.1353C52.3651 72.0189 52.6308 71.7759 52.7794 71.4603C52.928 71.1446 52.9465 70.7829 52.831 70.4532C52.3358 69.1329 51.2569 68.1266 49.9192 67.736V66.6985C49.9192 65.9712 49.3378 65.3813 48.6201 65.3813C47.9031 65.3813 47.3217 65.9712 47.3217 66.6985V67.6946C45.8778 68.0399 44.6865 69.0704 44.1235 70.4626C43.5605 71.854 43.6937 73.4368 44.4823 74.711C45.2709 75.9852 46.6178 76.7954 48.0987 76.8852C48.1772 76.8899 48.3944 76.8954 48.6108 76.9009C48.7849 76.9048 48.9589 76.9079 49.0259 76.9118C50.0409 76.9774 50.8449 77.8047 50.8949 78.8352C50.945 79.8649 50.2242 80.7688 49.2207 80.9344C49.0636 80.9586 48.9042 80.9711 48.7448 80.9727H48.7225H48.6578C47.8885 81.0024 47.1831 80.5422 46.8904 79.8196C46.6409 79.143 45.9017 78.7961 45.2324 79.0415C44.5625 79.2868 44.2121 80.0329 44.4469 80.7149C44.9375 82.0204 45.9994 83.0203 47.3193 83.4195V84.4648C47.3193 85.1929 47.9 85.7828 48.6177 85.7828L48.6177 85.783Z" fill="white"/>
<path d="M101.471 72.4031C101.735 72.9843 102.159 73.4757 102.691 73.8187C103.222 74.1624 103.841 74.3437 104.472 74.3398C104.532 74.3398 104.594 74.3398 104.655 74.3351C105.31 74.3038 105.94 74.0734 106.464 73.6742C106.987 73.2742 107.379 72.7234 107.59 72.0937L107.62 72.0007V71.9999C108.371 69.6273 108.078 67.0414 106.814 64.9046C104.63 61.1718 101.089 61.56 100.436 61.667C96.0551 62.0545 94.6467 66.0584 94.7745 69.3817C94.8022 70.1083 95.4059 70.6755 96.1229 70.6466C96.8398 70.6185 97.3982 70.006 97.3697 69.2786C97.315 67.8622 97.5321 64.5426 100.703 64.2888H100.703C100.757 64.2849 100.812 64.2763 100.865 64.2654C101.365 64.192 101.875 64.2334 102.357 64.3873C100.552 66.8749 100.231 69.6841 101.471 72.4029L101.471 72.4031ZM104.418 65.9907C104.474 66.0735 104.528 66.1602 104.581 66.25C105.463 67.736 105.671 69.5352 105.15 71.1868L105.13 71.247C105.042 71.5165 104.796 71.6993 104.517 71.704C104.226 71.7306 103.949 71.5673 103.829 71.297C102.997 69.4728 103.195 67.6908 104.418 65.9908L104.418 65.9907Z" fill="white"/>
<path d="M54.7464 33.6514L60.7369 35.6638C61.4185 35.8927 62.1531 35.5185 62.3788 34.8271C62.6044 34.1364 62.2348 33.3911 61.554 33.1622L58.4691 32.1263C64.2464 29.4591 70.555 28.1865 76.898 28.4083C83.2421 28.6302 89.4481 30.3403 95.0312 33.4043C95.3339 33.5777 95.6935 33.6207 96.0277 33.523C96.3619 33.4254 96.6438 33.1957 96.8102 32.8855C96.9765 32.5754 97.0127 32.2105 96.911 31.8722C96.8102 31.5347 96.5791 31.2527 96.2711 31.0886C90.3353 27.83 83.7356 26.0104 76.9895 25.7746C70.2443 25.5379 63.5369 26.891 57.3939 29.7278L58.3704 26.7372C58.4797 26.4044 58.4551 26.0419 58.3003 25.7286C58.1463 25.4154 57.8752 25.1771 57.5472 25.0669C57.2191 24.9568 56.8618 24.9833 56.5537 25.1411C56.2449 25.299 56.0116 25.5747 55.9046 25.9083L53.9215 31.9857C53.8129 32.3178 53.8391 32.6795 53.9939 32.992C54.1487 33.3045 54.419 33.5412 54.7463 33.6513L54.7464 33.6514Z" fill="white"/>
<path d="M93.6808 122.117C94.0081 122.226 94.3647 122.2 94.6727 122.043C94.9807 121.886 95.2149 121.611 95.3227 121.28L97.3063 115.203H97.3071C97.4149 114.871 97.3895 114.509 97.2347 114.197C97.0799 113.884 96.8088 113.647 96.4823 113.537L90.4918 111.525C89.8102 111.296 89.0756 111.67 88.8499 112.361C88.6243 113.052 88.9932 113.797 89.6747 114.026L92.6742 115.034C86.8831 117.732 80.5531 119.026 74.1844 118.815C67.8149 118.603 61.5818 116.891 55.9773 113.815C55.3473 113.468 54.5588 113.704 54.2161 114.344C53.8741 114.983 54.1075 115.783 54.7374 116.131C60.7132 119.411 67.3607 121.233 74.152 121.45C80.9434 121.667 87.691 120.275 93.8586 117.383L92.8568 120.451C92.7482 120.783 92.7744 121.144 92.9284 121.457C93.0832 121.769 93.3542 122.007 93.6808 122.117L93.6808 122.117Z" fill="white"/>
</svg>
