<svg width="151" height="151" viewBox="0 0 151 151" fill="none" xmlns="http://www.w3.org/2000/svg">
<path d="M48.2668 98.5305C49.9075 97.0287 50.87 94.9258 50.9347 92.7025C51.0001 90.4792 50.1625 88.3242 48.6129 86.729C47.0633 85.1331 44.9333 84.2329 42.7091 84.2329C40.4848 84.2329 38.355 85.133 36.8053 86.729C35.2557 88.3241 34.4181 90.4792 34.4834 92.7025C34.5481 94.9258 35.5106 97.0288 37.1514 98.5305C34.4196 99.6385 32.0801 101.536 30.4312 103.98C28.7832 106.424 27.9 109.304 27.8963 112.252V118.836C27.8963 119.272 28.0697 119.691 28.3783 119.999C28.6868 120.308 29.1057 120.481 29.5421 120.481H55.8757C56.3121 120.481 56.7309 120.308 57.0395 119.999C57.3481 119.691 57.5215 119.272 57.5215 118.836V112.252C57.5178 109.304 56.6347 106.424 54.9865 103.98C53.3377 101.537 50.9983 99.6386 48.2664 98.5305H48.2668ZM42.7091 87.5643C44.0184 87.5643 45.2749 88.0845 46.2005 89.0103C47.1262 89.9361 47.6465 91.1926 47.6465 92.5017C47.6465 93.8109 47.1263 95.0676 46.2005 95.9932C45.2747 96.9188 44.0182 97.4392 42.7091 97.4392C41.3999 97.4392 40.1432 96.919 39.2176 95.9932C38.292 95.0674 37.7716 93.8109 37.7716 92.5017C37.7716 91.1926 38.2918 89.9359 39.2176 89.0103C40.1434 88.0847 41.3999 87.5643 42.7091 87.5643ZM54.23 117.19H31.1881V112.252C31.1881 108.136 33.3844 104.333 36.9486 102.275C40.5129 100.217 44.9053 100.217 48.4695 102.275C52.0338 104.333 54.23 108.136 54.23 112.252V117.19Z" fill="white"/>
<path d="M116.771 67.8145C114.494 67.8189 112.32 68.7734 110.776 70.4479C108.042 63.3576 100.27 58.1915 91.0518 57.9673C87.6742 54.4162 83.1737 52.1406 78.312 51.5257C73.4493 50.9107 68.5244 51.9938 64.3693 54.5919C65.6581 46.2047 71.6846 39.8351 78.9167 39.8351C81.5162 39.8564 83.9749 38.6573 85.5588 36.597C87.1437 34.5368 87.6706 31.8527 86.9828 29.3457C86.2958 26.8388 84.4728 24.7998 82.0584 23.8358C79.644 22.8725 76.9181 23.0966 74.6933 24.4405C72.4692 25.7851 71.0026 28.0945 70.7329 30.68C70.4632 33.2649 71.4214 35.8269 73.3207 37.6014C66.2304 40.3354 61.0643 48.107 60.8401 57.3253C55.691 62.235 53.3236 69.3862 54.5272 76.3983C55.73 83.41 60.3451 89.3631 66.8365 92.2756C73.3281 95.188 80.8431 94.6775 86.8801 90.9133C85.5913 99.299 79.5648 105.669 72.3327 105.669C69.7332 105.647 67.2745 106.846 65.6906 108.907C64.1057 110.967 63.5788 113.651 64.2666 116.158C64.9536 118.665 66.7766 120.704 69.191 121.668C71.6054 122.631 74.3313 122.407 76.5561 121.063C78.7802 119.719 80.2468 117.409 80.5165 114.824C80.7862 112.239 79.828 109.677 77.9287 107.902C85.019 105.168 90.1851 97.3967 90.4093 88.1784C91.6312 87.0072 92.7104 85.6965 93.6253 84.2724H93.7289V84.1078C95.8693 80.7287 97.0103 76.8132 97.0206 72.8132C97.031 68.8131 95.9097 64.8918 93.7863 61.5023C102.172 62.7845 108.542 68.8108 108.542 76.0432C108.542 78.2255 109.409 80.3186 110.951 81.8625C112.495 83.4055 114.589 84.2724 116.771 84.2724C118.953 84.2724 121.046 83.4054 122.59 81.8625C124.133 80.3188 125 78.2255 125 76.0432C125 73.8609 124.133 71.7677 122.59 70.2238C121.046 68.6809 118.953 67.8139 116.771 67.8139L116.771 67.8145ZM78.9167 26.6684C80.2261 26.6684 81.4826 27.1886 82.4082 28.1143C83.3338 29.0401 83.8542 30.2966 83.8542 31.6058C83.8542 32.915 83.334 34.1716 82.4082 35.0973C81.4824 36.0229 80.2259 36.5432 78.9167 36.5432C77.6076 36.5432 76.3509 36.023 75.4253 35.0973C74.4997 34.1715 73.9793 32.915 73.9793 31.6058C73.9793 30.2966 74.4995 29.04 75.4253 28.1143C76.3511 27.1887 77.6076 26.6684 78.9167 26.6684ZM72.3334 118.836C71.024 118.836 69.7675 118.316 68.8419 117.39C67.9163 116.464 67.3959 115.208 67.3959 113.898C67.3959 112.589 67.9161 111.333 68.8419 110.407C69.7677 109.481 71.0242 108.961 72.3334 108.961C73.6425 108.961 74.8992 109.481 75.8248 110.407C76.7504 111.333 77.2708 112.589 77.2708 113.898C77.2708 115.208 76.7506 116.464 75.8248 117.39C74.899 118.315 73.6425 118.836 72.3334 118.836ZM75.625 54.6478C76.7191 54.6522 77.8102 54.7558 78.8851 54.9571C78.7867 56.0526 78.1445 57.0254 77.1761 57.5464C76.2077 58.0681 75.0423 58.0681 74.074 57.5464C73.1056 57.0255 72.4634 56.0527 72.365 54.9571C73.4399 54.7558 74.5311 54.6522 75.6251 54.6478H75.625ZM63.2385 85.9189C58.7272 81.7271 56.686 75.5103 57.835 69.4604H66.5727C67.0275 69.4604 67.3956 69.8285 67.3956 70.2833C67.3956 70.7381 67.0275 71.1062 66.5727 71.1062H63.281C61.8108 71.1062 60.453 71.8902 59.7175 73.1636C58.9828 74.437 58.9828 76.0048 59.7175 77.2782C60.453 78.5516 61.8108 79.3357 63.281 79.3357H67.3956C68.572 79.3357 69.6586 79.9631 70.2464 80.9815C70.8342 81.9999 70.8342 83.2548 70.2464 84.2732C69.6586 85.2916 68.5719 85.919 67.3956 85.919L63.2385 85.9189ZM75.625 90.8564C72.9887 90.8535 70.3856 90.2708 67.9998 89.1496C70.2739 88.9527 72.282 87.5882 73.3032 85.5471C74.3245 83.5067 74.2128 81.0813 73.0078 79.143C71.8028 77.2047 69.6779 76.0313 67.3958 76.0437H63.2811C62.8263 76.0437 62.4582 75.6756 62.4582 75.2208C62.4582 74.766 62.8263 74.3979 63.2811 74.3979H66.5728C68.0431 74.3979 69.4009 73.6139 70.1363 72.3405C70.8711 71.0672 70.8711 69.4993 70.1363 68.2259C69.4008 66.9525 68.043 66.1685 66.5728 66.1685H58.7779C60.6427 61.4294 64.4105 57.6894 69.1637 55.8606C69.5399 57.8892 70.847 59.6225 72.6935 60.5432C74.5392 61.4639 76.7111 61.4639 78.5569 60.5432C80.4033 59.6226 81.7105 57.8894 82.0867 55.8606C85.0044 56.9767 87.5855 58.8269 89.5805 61.2309H83.0317C81.5614 61.2309 80.2036 62.0149 79.4682 63.2883C78.7334 64.5616 78.7334 66.1295 79.4682 67.4029C80.2037 68.6763 81.5615 69.4603 83.0317 69.4603H86.3234C86.7782 69.4603 87.1463 69.8284 87.1463 70.2833C87.1463 70.7381 86.7782 71.1062 86.3234 71.1062H82.2088C79.8568 71.1062 77.6833 72.3612 76.5072 74.3979C75.3316 76.4346 75.3316 78.9446 76.5072 80.9813C77.6835 83.018 79.857 84.273 82.2088 84.273H89.5805C86.1454 88.4419 81.0271 90.8564 75.6254 90.8564L75.625 90.8564ZM91.7316 80.9813H82.2084C81.0321 80.9813 79.9454 80.3538 79.3576 79.3355C78.7698 78.3171 78.7698 77.0621 79.3576 76.0438C79.9454 75.0254 81.0321 74.3979 82.2084 74.3979H86.3231C87.7933 74.3979 89.1511 73.6139 89.8865 72.3405C90.6213 71.0672 90.6213 69.4993 89.8865 68.2259C89.1511 66.9526 87.7932 66.1685 86.3231 66.1685H83.0314C82.5765 66.1685 82.2084 65.8004 82.2084 65.3456C82.2084 64.8908 82.5765 64.5226 83.0314 64.5226H91.7316C94.3965 69.685 94.3965 75.8188 91.7316 80.9811V80.9813ZM116.771 80.9813C115.462 80.9813 114.205 80.4611 113.28 79.5353C112.354 78.6095 111.834 77.353 111.834 76.0439C111.834 74.7347 112.354 73.478 113.28 72.5524C114.205 71.6268 115.462 71.1064 116.771 71.1064C118.08 71.1064 119.337 71.6266 120.262 72.5524C121.188 73.4782 121.708 74.7347 121.708 76.0439C121.708 77.353 121.188 78.6097 120.262 79.5353C119.337 80.4609 118.08 80.9813 116.771 80.9813Z" fill="white"/>
<path d="M32.8334 87.5649V84.2732C31.9605 84.2732 31.1229 83.9264 30.5057 83.3092C29.8885 82.692 29.5417 81.8544 29.5417 80.9815V77.6898C29.5417 76.817 29.8885 75.9793 30.5057 75.3621C31.1229 74.745 31.9605 74.3981 32.8334 74.3981H50.9377V71.1064H32.8334C31.0876 71.1064 29.413 71.8001 28.178 73.0344C26.9436 74.2696 26.25 75.9441 26.25 77.6898V80.9815C26.25 82.7273 26.9436 84.4019 28.178 85.6369C29.4131 86.8713 31.0877 87.5649 32.8334 87.5649Z" fill="white"/>
</svg>
