<svg width="102" height="47" viewBox="0 0 102 47" fill="none" xmlns="http://www.w3.org/2000/svg">
<path d="M45.3767 21.8188C45.0472 21.0988 44.7076 20.3986 44.1784 19.8086C43.1498 18.6486 41.8017 18.1987 40.3137 18.1787C38.1168 18.1587 35.9697 18.5986 33.8327 19.0586C32.6444 19.3086 31.456 19.5486 30.2377 19.5986C27.2818 19.7386 24.9151 18.5187 22.9678 16.3887C21.1703 14.4187 20.3115 12.0989 20.3614 9.39893C20.4513 4.90893 24.1362 0.688664 28.59 0.118664C33.3933 -0.501336 37.218 1.33896 40.2838 4.91895C42.7603 7.81895 44.0286 11.2988 44.7775 14.9888C45.2469 17.2388 45.4666 19.5188 45.3767 21.8188ZM30.2177 4.04884C27.0222 4.04884 24.4557 6.60884 24.4657 9.79883C24.4657 12.9488 27.1021 15.5686 30.2577 15.5586C33.4033 15.5486 35.9598 12.9588 35.9697 9.79883C35.9697 6.57884 33.4333 4.04884 30.2177 4.04884Z" fill="white"/>
<path d="M7.99748 26.3279C8.38694 26.3979 8.7764 26.4483 9.16586 26.5383C9.75504 26.6683 10.3342 26.8582 10.8835 27.1282C12.3215 27.8382 13.3001 28.8681 13.3201 30.5681C13.3501 32.3981 12.5312 33.7281 10.9334 34.5882C9.37557 35.4282 7.65796 35.5779 5.93036 35.5979C4.09291 35.6279 2.24548 35.6079 0.408028 35.5979C0.268222 35.5979 0.0684901 35.7081 0.00857328 35.4881C-0.0413574 35.3181 0.138399 35.2683 0.248246 35.1883C0.717595 34.8682 0.907327 34.3979 0.97723 33.8679C1.03715 33.4379 1.0671 33.0081 1.0671 32.5681C1.07709 28.6081 1.0671 24.638 1.0671 20.678C1.0671 20.228 1.02716 19.7781 0.927296 19.3381C0.817449 18.8381 0.617731 18.3779 0.168355 18.0779C0.0784799 18.0179 -0.0213851 17.9581 0.00857328 17.8381C0.0285456 17.7281 0.1384 17.738 0.218289 17.738C2.90456 17.808 5.60082 17.5682 8.28709 17.8782C8.93619 17.9582 9.56531 18.188 10.1545 18.508C11.5625 19.268 12.2616 20.4378 12.2915 22.0578C12.3115 23.6679 11.5226 24.738 10.1745 25.488C9.49541 25.868 8.76642 26.0779 7.99748 26.3279ZM3.54368 30.1482C3.55366 30.1482 3.56365 30.1482 3.57363 30.1482C3.57363 31.2082 3.54367 32.2679 3.58361 33.3279C3.61357 34.1779 4.023 34.6381 4.86184 34.7981C5.67071 34.9481 6.48958 34.8981 7.29846 34.7781C9.08598 34.5081 10.1545 33.4783 10.4541 31.7283C10.7836 29.7983 10.0846 28.288 8.48681 27.468C7.00886 26.708 5.41107 26.698 3.81329 26.678C3.50372 26.678 3.54368 26.8781 3.54368 27.0681C3.54368 28.0981 3.54368 29.1182 3.54368 30.1482ZM3.54368 22.2483C3.54368 23.3983 3.55365 24.5382 3.53368 25.6882C3.53368 25.9982 3.60359 26.1181 3.94311 26.0681C4.59221 25.9781 5.26129 25.9779 5.91039 25.8879C8.14728 25.5879 9.35561 24.478 9.48542 22.448C9.62523 20.268 8.73645 18.9378 6.61939 18.5578C5.74061 18.3978 4.86184 18.458 3.97307 18.428C3.63354 18.418 3.52369 18.5181 3.53368 18.8581C3.55365 19.9881 3.54368 21.1183 3.54368 22.2483Z" fill="white"/>
<path d="M89.8539 34.4492C89.724 34.6992 89.2247 34.6893 89.3346 35.0693C89.4344 35.4093 89.8339 35.4193 90.1235 35.4893C92.1207 35.9893 94.1679 36.3091 96.1651 36.8491C97.0739 37.0991 97.9626 37.3793 98.8015 37.7993C101.438 39.1293 101.957 42.2394 99.9099 44.3794C98.7316 45.6194 97.2336 46.2291 95.6159 46.5791C92.6999 47.2091 89.794 47.1395 86.9279 46.2495C86.0392 45.9695 85.2203 45.5491 84.5712 44.8691C83.3629 43.6091 83.5626 41.8894 85.0206 40.9394C86.129 40.2194 88.0064 39.7894 89.5643 39.8994C89.5942 40.0194 89.4944 40.0391 89.4245 40.0791C87.7568 41.1591 87.5071 43.2292 88.8553 44.6992C89.7141 45.6392 90.8225 46.0494 92.0408 46.1894C93.8383 46.3994 95.546 46.1593 97.0639 45.0893C98.2422 44.2593 98.4919 42.8394 97.653 41.8794C97.2236 41.3794 96.6544 41.0693 96.0653 40.8193C94.4175 40.0993 92.67 39.7295 90.9424 39.2495C89.774 38.9295 88.5856 38.6293 87.5071 38.0693C86.9479 37.7793 86.3587 37.4595 86.3288 36.7295C86.2988 35.9795 86.858 35.5895 87.4172 35.2695C88.1762 34.8395 88.9651 34.4892 89.8539 34.4492Z" fill="white"/>
<path d="M95.4743 22.7181C94.7653 22.7581 94.0563 22.6582 93.3573 22.7982C91.6097 23.1382 90.5212 24.1783 90.1617 25.9383C89.7722 27.8382 90.0019 29.668 90.8008 31.4279C91.0005 31.8779 91.3101 32.2581 91.6696 32.5881C92.6482 33.4781 94.0763 33.3383 94.8652 32.2683C95.4843 31.4183 95.694 30.438 95.7739 29.428C95.8638 28.338 95.8238 27.238 95.5043 26.178C95.2446 25.308 94.8252 24.5779 93.8566 24.3079C94.9351 23.6279 96.6727 23.7579 97.861 24.5779C99.4588 25.6879 99.7484 27.2979 99.5087 29.0579C99.1792 31.4878 97.6912 32.9283 95.3745 33.5383C92.9978 34.1583 90.691 34.0682 88.5639 32.7082C86.7365 31.5382 85.7878 29.8582 85.9276 27.6682C86.0674 25.3882 87.3356 23.8781 89.3928 23.0081C91.38 22.1581 93.4172 22.1281 95.4743 22.7181Z" fill="white"/>
<path d="M55.94 35.5483C56.5692 34.8883 56.699 34.1281 56.699 33.3281C56.699 29.5382 56.699 25.7483 56.699 21.9684C56.699 21.6684 56.669 21.3785 56.5991 21.0885C56.1997 19.4285 54.7317 18.7284 53.1839 19.4484C52.9442 19.5584 52.7145 19.6983 52.375 19.8883C52.6546 19.3683 53.0141 19.1083 53.3736 18.8483C54.2923 18.1883 55.281 17.7284 56.4493 17.7384C58.4865 17.7484 59.9145 18.8886 60.334 20.8785C60.4638 21.4885 60.5337 22.1084 60.5337 22.7384C60.5337 26.2984 60.5437 29.8583 60.5437 33.4282C60.5437 34.1982 60.6935 34.9083 61.3026 35.5483C59.4951 35.5483 57.7575 35.5483 55.94 35.5483Z" fill="white"/>
<path d="M61.582 19.73C62.8203 18.26 64.3981 17.5398 66.3155 17.7798C67.9931 17.9898 69.2214 19.3697 69.511 21.2397C69.5909 21.7597 69.6309 22.2698 69.6209 22.7998C69.6109 26.2198 69.6209 29.6498 69.6209 33.0698C69.6209 33.9498 69.7207 34.7996 70.3798 35.5596C68.5823 35.5596 66.8647 35.5596 65.0972 35.5596C65.8761 34.6596 65.8561 33.5597 65.8561 32.4697C65.8561 29.1197 65.8561 25.7597 65.8461 22.4097C65.8461 21.9997 65.8161 21.5699 65.7263 21.1699C65.3668 19.4299 63.8189 18.7 62.2211 19.48C62.0214 19.58 61.8616 19.7598 61.622 19.7798C61.612 19.7598 61.592 19.74 61.582 19.73Z" fill="white"/>
<path d="M52.1256 35.5781C50.378 35.5781 48.6804 35.5781 46.9129 35.5781C47.532 34.8881 47.6019 34.0686 47.6019 33.2686C47.6219 28.7686 47.6119 24.2583 47.6119 19.7583C47.6119 19.0684 47.3423 18.5184 46.6133 18.0684C47.6518 18.0784 48.5506 17.9782 49.4294 18.1182C50.6577 18.3182 51.3267 19.1283 51.3667 20.4082C51.3966 21.5182 51.3766 22.6386 51.3866 23.7486C51.3866 26.7386 51.3866 29.7283 51.3966 32.7183C51.3966 33.1983 51.4466 33.6885 51.5165 34.1685C51.5764 34.6685 51.7262 35.1681 52.1256 35.5781Z" fill="white"/>
<path d="M40.753 28.1399C39.3849 28.1399 38.0068 28.1399 36.6387 28.1399C36.469 28.1399 36.2293 28.0498 36.2293 28.3698C36.2293 29.9398 36.439 31.4699 37.4975 32.7199C38.8756 34.3399 40.6531 34.6 42.6104 34.07C43.5092 33.83 44.2881 33.3402 45.0071 32.7502C45.107 32.6702 45.1868 32.4501 45.3866 32.6101C45.5663 32.7601 45.4265 32.88 45.3466 33.01C43.3594 36.03 39.0054 36.8399 36.1793 34.6799C34.5616 33.4399 33.8825 31.7102 33.7627 29.7502C33.6329 27.7302 33.9225 25.8001 35.1907 24.1301C36.9183 21.8401 40.3536 21.0799 42.8801 22.4699C44.338 23.2699 44.9672 24.6399 45.2168 26.2199C45.2967 26.7099 45.2667 27.2299 45.3267 27.7199C45.3666 28.0899 45.2068 28.1501 44.8873 28.1501C43.4892 28.1401 42.1211 28.1399 40.753 28.1399ZM36.8884 27.4699C38.8956 27.3499 40.7131 27.2399 42.5305 27.1399C42.8601 27.1199 42.9799 27.0201 42.9499 26.6701C42.88 25.7401 42.7003 24.85 42.2909 24.01C41.9613 23.34 41.482 22.8501 40.743 22.6501C39.5647 22.3301 38.3264 22.7099 37.5674 23.6599C36.8684 24.5399 36.5189 25.5699 36.3591 26.6599C36.2293 27.4899 36.2393 27.4899 36.8884 27.4699Z" fill="white"/>
<path d="M84.4821 32.7199C84.0127 33.7299 83.3137 34.5101 82.3151 34.9801C80.0183 36.0601 77.6815 36.1297 75.3747 35.0597C73.0979 34.0097 71.9095 32.18 71.6898 29.67C71.3403 25.69 74.1264 22.8399 77.5717 22.3599C77.6416 22.3499 77.7115 22.3599 77.8613 22.3599C76.3034 23.4999 75.8441 25.1499 75.5844 26.8599C75.3248 28.59 75.3947 30.3 76.2535 31.88C77.0724 33.4 78.3705 34.1701 80.0882 34.2501C81.7558 34.3301 83.2438 33.9099 84.4821 32.7199Z" fill="white"/>
<path d="M17.3862 15.6484C17.3862 15.9184 17.3862 16.1083 17.3862 16.2983C17.3862 21.6884 17.3862 27.0686 17.3961 32.4586C17.3961 32.9586 17.4461 33.4686 17.516 33.9586C17.5959 34.4886 17.8355 34.9484 18.3248 35.2384C18.4347 35.3084 18.5445 35.3687 18.4846 35.5187C18.4347 35.6487 18.3049 35.5983 18.215 35.5983C16.9168 35.5983 15.6086 35.5983 14.3104 35.5983C14.2206 35.5983 14.0907 35.6487 14.0408 35.5187C14.0009 35.4087 14.0308 35.3284 14.1407 35.2584C14.9196 34.7984 15.0594 34.0287 15.0694 33.2286C15.0993 31.1586 15.0893 29.0884 15.0893 27.0284C15.0893 24.5084 15.0893 21.9883 15.0893 19.4683C15.0893 18.5283 14.9795 17.6682 14.0408 17.1382C13.7911 16.9982 13.901 16.8183 14.1307 16.7383C15.1892 16.3883 16.2577 16.0284 17.3862 15.6484Z" fill="white"/>
<path d="M28.3684 33.2079C28.5382 33.8579 28.3384 34.2976 27.7992 34.6776C26.5809 35.5376 25.2827 36.0575 23.7648 35.8475C22.0771 35.6175 21.1085 34.6178 20.8988 32.9178C20.7989 32.0679 20.8189 31.2176 20.8189 30.3676C20.8189 28.6776 20.8189 26.9976 20.8189 25.3076C20.8189 24.4476 20.6291 23.6977 19.8402 23.1977C19.5406 23.0077 19.6205 22.848 19.9301 22.748C20.8888 22.448 21.8474 22.1579 22.8061 21.8579C23.2455 21.7179 23.1157 22.048 23.1157 22.228C23.1257 25.028 23.1157 27.8276 23.1257 30.6176C23.1257 31.2276 23.1357 31.8276 23.2954 32.4276C23.5651 33.4276 24.1842 33.9479 25.2128 34.0379C26.1615 34.1179 27.0303 33.8779 27.8691 33.4579C28.0389 33.3779 28.1986 33.2879 28.3684 33.2079Z" fill="white"/>
<path d="M29.3797 30.2282C29.3797 28.5782 29.3797 26.928 29.3797 25.2781C29.3797 24.4181 29.18 23.6682 28.3711 23.1882C28.1214 23.0382 28.1015 22.8683 28.431 22.7683C29.4096 22.4683 30.3883 22.1682 31.3569 21.8582C31.6266 21.7682 31.6865 21.8579 31.6765 22.1179C31.6665 22.8979 31.6765 23.678 31.6765 24.468C31.6765 27.018 31.6765 29.5781 31.6765 32.1281C31.6765 32.7381 31.7164 33.3479 31.9761 33.9079C32.1259 34.2479 32.3556 34.5279 32.6851 34.7179C32.775 34.7679 32.8648 34.8282 32.8449 34.9582C32.8249 35.0982 32.7051 35.0978 32.6152 35.1178C31.6366 35.3478 30.6579 35.5778 29.6793 35.8078C29.3198 35.8978 29.3797 35.6479 29.3797 35.4479C29.3797 33.7079 29.3797 31.9682 29.3797 30.2282Z" fill="white"/>
<path d="M79.1985 22.3691C80.986 22.4791 82.6537 22.8895 83.7621 24.4395C85.1302 26.3695 84.4212 28.5592 82.1943 29.3493C80.227 30.0493 78.2997 29.8393 76.4023 29.0792C77.0714 29.0992 77.7205 29.2593 78.4096 29.1593C79.8376 28.9493 80.6664 28.2693 80.9261 26.8692C81.1358 25.7592 81.0159 24.6594 80.4767 23.6294C80.1871 23.0894 79.7477 22.6791 79.1985 22.3691Z" fill="white"/>
<path d="M96.2266 22.8982C96.8157 22.8882 97.2451 22.7283 97.6546 22.4783C97.9242 22.3183 98.054 22.1882 97.8343 21.8382C97.4049 21.1182 97.7345 20.2082 98.4834 19.8582C99.2424 19.5082 100.131 19.8483 100.411 20.6282C100.61 21.1882 100.541 21.7183 100.111 22.1683C99.2424 23.0682 97.5847 23.4082 96.2266 22.8982Z" fill="white"/>
<path d="M89.8633 34.459C89.8933 34.429 89.9333 34.4089 89.9633 34.3789C89.9733 34.3989 89.9833 34.4187 90.0033 34.4287C89.9533 34.4387 89.9033 34.449 89.8633 34.459Z" fill="white"/>
<path d="M61.6244 19.7686C61.5944 19.8186 61.5544 19.8584 61.4844 19.8384L61.4944 19.8481C61.5244 19.8081 61.5544 19.7683 61.5844 19.7383C61.5944 19.7383 61.6144 19.7586 61.6244 19.7686Z" fill="white"/>
<path d="M61.4814 19.8398C61.4714 19.8598 61.4614 19.8799 61.4414 19.8999C61.4414 19.8899 61.4414 19.8696 61.4414 19.8696C61.4614 19.8596 61.4714 19.8498 61.4814 19.8398Z" fill="white"/>
</svg>
