<svg width="178" height="28" viewBox="0 0 178 28" fill="none" xmlns="http://www.w3.org/2000/svg">
<path d="M30.96 27.328H23.65V26.1481C23.65 21.3481 23.65 16.5381 23.65 11.7281C23.6497 10.8871 23.5794 10.0475 23.44 9.21813C23.03 6.87813 21.53 5.8582 19.2 6.2882C16.7 6.7582 14.85 8.93818 14.39 12.0182C14.2667 12.8492 14.2032 13.6881 14.2 14.5282C14.2 18.3882 14.2 22.248 14.2 26.108V27.318H6.89001V7.14806H0V0.297962C2.78 0.437962 5.62 -0.171989 8.37 0.848011C9.3952 1.26945 10.3243 1.89453 11.1012 2.68517C11.8781 3.4758 12.4866 4.41567 12.89 5.44811C13.23 6.17811 13.5 6.92813 13.89 7.96813C14.15 7.36813 14.31 7.02808 14.45 6.66808C15.68 3.53808 17.62 1.11796 21.05 0.297962C25.99 -0.902038 29.71 1.588 30.55 6.588C30.5962 6.90965 30.7392 7.20973 30.96 7.44811C31.12 7.10811 31.29 6.76811 31.44 6.44811C32.71 3.44811 34.63 1.00799 38 0.327991C43.25 -0.742009 46.47 1.57815 47.35 6.48815C47.508 7.38639 47.5917 8.29612 47.6 9.20812C47.6 15.2081 47.6 21.138 47.6 27.098C47.6 27.308 47.6 27.5181 47.6 27.7181C44.13 28.2581 40.49 25.2081 40.31 21.4481C40.15 18.1881 40.31 14.9181 40.21 11.6581C40.204 10.5723 40.0868 9.48997 39.86 8.42809C39.7562 7.77386 39.4065 7.18406 38.8824 6.77892C38.3583 6.37378 37.6993 6.18391 37.04 6.24816C36.1751 6.21658 35.3167 6.41002 34.549 6.80968C33.7812 7.20934 33.1303 7.80154 32.66 8.52819C31.5452 10.1654 30.9653 12.1076 31 14.088C30.94 18.438 30.96 22.828 30.96 27.328Z" fill="white"/>
<path d="M111.8 9.29788L106.51 6.42801C107.355 4.68539 108.722 3.24887 110.42 2.3179C112.47 1.15537 114.742 0.440385 117.088 0.219759C119.434 -0.000866592 121.8 0.278093 124.03 1.03812C127.56 2.13812 129.47 5.03793 129.59 9.34793C129.68 12.5379 129.59 15.738 129.59 18.928C129.416 21.7494 129.817 24.5768 130.77 27.2381C128.5 27.2381 126.34 27.2381 124.18 27.2381C123.92 27.2381 123.51 26.8281 123.43 26.5281C123.14 25.5281 122.96 24.528 122.75 23.458C122.68 23.108 122.64 22.7479 122.54 22.1079C122.376 22.3627 122.225 22.6265 122.09 22.898C119.94 28.108 113.63 28.738 109.83 26.958C105.41 24.888 104.83 17.428 109.36 14.688C111.683 13.4531 114.193 12.6085 116.79 12.188C118.32 11.858 119.85 11.4679 121.38 11.0779C121.579 11.0471 121.769 10.9761 121.939 10.8689C122.109 10.7618 122.255 10.6207 122.369 10.4549C122.482 10.289 122.56 10.1018 122.598 9.90457C122.636 9.7073 122.634 9.50408 122.59 9.30789C122.58 8.31126 122.179 7.35837 121.475 6.6536C120.77 5.94883 119.817 5.54853 118.82 5.53812C117.404 5.35045 115.964 5.61224 114.705 6.2869C113.445 6.96155 112.429 8.01475 111.8 9.29788ZM122.53 13.458C121.69 13.798 120.99 14.1079 120.27 14.3579C119.494 14.5575 118.729 14.8012 117.98 15.0879C116.709 15.6181 115.502 16.2889 114.38 17.0879C113.813 17.646 113.451 18.3794 113.353 19.169C113.255 19.9586 113.427 20.7582 113.84 21.438C114.233 22.0897 114.838 22.5854 115.555 22.8406C116.271 23.0959 117.054 23.0948 117.77 22.8379C118.816 22.4767 119.783 21.9203 120.62 21.198C122.98 19.148 122.72 16.328 122.53 13.458Z" fill="white"/>
<path d="M76.9902 27.2482C74.7102 27.2482 72.6102 27.2482 70.5102 27.2482C70.3214 27.2085 70.1449 27.1241 69.9953 27.0023C69.8457 26.8805 69.7274 26.7247 69.6502 26.548C69.3402 25.438 69.1502 24.2981 68.9202 23.1681C68.8862 22.8694 68.7644 22.5875 68.5702 22.358L68.1502 23.2381C65.5302 28.8981 57.9502 28.7281 54.8502 26.1781C54.0986 25.4955 53.4957 24.6653 53.0792 23.7394C52.6627 22.8134 52.4414 21.8117 52.4292 20.7965C52.417 19.7813 52.6142 18.7744 53.0083 17.8387C53.4025 16.9031 53.9852 16.0585 54.7202 15.358C56.6041 13.9383 58.8032 12.9949 61.1302 12.608C63.2402 12.108 65.3503 11.608 67.4602 11.128C67.6774 11.1037 67.8866 11.0328 68.0739 10.9203C68.2612 10.8077 68.4221 10.6563 68.5455 10.4759C68.6688 10.2956 68.7518 10.0907 68.7889 9.87536C68.8259 9.66003 68.8162 9.43934 68.7602 9.22814C68.7471 8.25009 68.3515 7.31611 67.658 6.62633C66.9645 5.93656 66.0283 5.54596 65.0502 5.5382C63.6252 5.34331 62.1749 5.60392 60.9069 6.28283C59.6389 6.96173 58.6181 8.02395 57.9902 9.31798L52.7002 6.48815C53.5003 4.81108 54.7905 3.41629 56.4002 2.48815C58.4786 1.26449 60.7983 0.507196 63.1984 0.268911C65.5985 0.0306271 68.0217 0.316924 70.3002 1.10802C73.6602 2.18802 75.6201 5.10802 75.7201 8.85802C75.8101 12.328 75.7202 15.8582 75.7802 19.2782C75.6469 21.989 76.0583 24.699 76.9902 27.2482ZM68.6102 13.5082C67.7402 13.8482 66.8802 14.1982 66.0002 14.5082C65.0893 14.7573 64.1944 15.0611 63.3202 15.4181C62.2766 15.8881 61.3092 16.5118 60.4502 17.2682C59.9193 17.8394 59.5937 18.5712 59.5249 19.348C59.4561 20.1248 59.6479 20.9023 60.0702 21.558C60.4704 22.159 61.0512 22.6175 61.7287 22.8673C62.4062 23.1171 63.1455 23.1454 63.8401 22.9481C68.0101 21.8881 69.5502 17.8482 68.6502 13.5082H68.6102Z" fill="white"/>
<path d="M102.65 21.6682C102.65 23.4382 102.65 24.9783 102.65 26.5183C102.65 27.2683 102.22 27.2683 101.65 27.2683H94.1903C90.0503 27.2683 85.9102 27.2683 81.7702 27.2683C80.8502 27.2683 80.5702 26.9881 80.5602 26.0681C80.5002 22.0681 80.4802 22.0681 83.2602 19.0681C87.0302 15.0681 90.7802 11.0683 94.5302 6.99829C94.7202 6.79829 94.8703 6.5782 95.2003 6.1582H81.1402V0.828125H102.32C102.32 2.61812 102.32 4.39821 102.32 6.16821C102.32 6.48821 101.95 6.82815 101.7 7.10815L89.1903 20.6082C88.9603 20.8682 88.7602 21.1382 88.3702 21.6082L102.65 21.6682Z" fill="white"/>
<path d="M177.27 4.54782L172.89 8.33786C172.59 7.96786 172.36 7.66786 172.11 7.33786C171.418 6.46678 170.495 5.80865 169.446 5.43893C168.397 5.06921 167.265 5.00308 166.18 5.24801C165.614 5.30827 165.083 5.5503 164.667 5.93795C164.25 6.32561 163.97 6.83789 163.87 7.39792C163.794 7.92744 163.899 8.46701 164.167 8.92965C164.436 9.3923 164.852 9.75108 165.35 9.94796C166.85 10.688 168.44 11.258 169.98 11.948C171.32 12.538 172.7 13.068 173.98 13.778C178.45 16.288 178.47 23.1379 174.18 25.8779C172.503 26.9164 170.605 27.5435 168.64 27.708C164.96 28.068 161.41 27.6179 158.3 25.4279C157.3 24.6069 156.355 23.7218 155.47 22.778L159.75 19.0979C160.12 19.5179 160.44 19.9281 160.75 20.2881C161.604 21.2995 162.721 22.0552 163.977 22.4716C165.234 22.8881 166.581 22.9491 167.87 22.6479C168.384 22.5742 168.863 22.3421 169.239 21.9836C169.616 21.6252 169.871 21.1582 169.97 20.6479C170.086 20.144 170.026 19.6153 169.798 19.1508C169.57 18.6864 169.189 18.3145 168.72 18.0979C167.17 17.2879 165.53 16.668 163.94 15.958C162.6 15.4485 161.294 14.8539 160.03 14.1779C159.018 13.588 158.17 12.7535 157.564 11.7509C156.958 10.7484 156.614 9.60988 156.562 8.43966C156.51 7.26945 156.753 6.10502 157.268 5.05294C157.783 4.00087 158.554 3.09489 159.51 2.41794C161.009 1.30972 162.776 0.619539 164.63 0.417935C167.7 0.0479351 170.76 0.107945 173.53 1.67794C174.843 2.54522 176.092 3.50415 177.27 4.54782Z" fill="white"/>
<path d="M144.961 11.0979C145.071 10.6079 145.211 10.0979 145.311 9.64795C145.661 7.53243 146.455 5.51505 147.641 3.72803C148.317 2.71698 149.232 1.88799 150.304 1.31421C151.377 0.740429 152.574 0.439472 153.791 0.437988C154.071 0.437988 154.6 0.818086 154.61 1.03809C154.67 3.58809 154.61 6.14793 154.61 8.87793H153.1C147.83 8.87793 145.541 11.0579 145.391 16.3679C145.301 19.5879 145.331 22.8181 145.391 26.0381C145.391 27.0381 145.081 27.3081 144.141 27.2681C142.571 27.2081 140.991 27.2681 139.411 27.2681C138.581 27.2681 138.34 27.008 138.34 26.168C138.34 19.968 138.34 13.7579 138.34 7.54785C138.34 6.18785 138.341 6.18798 136.931 6.17798C135.801 6.17798 134.681 6.17798 133.561 6.17798C132.851 6.17798 132.561 5.97803 132.561 5.22803C132.561 4.03803 132.561 2.84795 132.561 1.64795C132.561 1.02795 132.771 0.778086 133.411 0.788086C136.881 0.788086 140.351 0.788086 143.821 0.788086C144.561 0.788086 144.711 1.08804 144.691 1.73804C144.601 4.46804 144.54 7.19798 144.47 9.92798C144.47 10.298 144.47 10.6581 144.47 11.0281L144.961 11.0979Z" fill="white"/>
</svg>
