<svg width="162" height="52" viewBox="0 0 162 52" fill="none" xmlns="http://www.w3.org/2000/svg">
<path d="M134.054 31.9001C133.94 38.0499 132.179 43.3311 127.904 47.4805C126.397 49.0555 124.546 50.2601 122.495 50.9999C120.444 51.7396 118.25 51.9943 116.085 51.7441C112.176 51.2984 108.604 49.3211 106.151 46.2459C103.188 42.7176 101.472 38.3096 101.27 33.7063C100.824 28.5425 102.239 23.3894 105.26 19.1777C107.392 16.0118 110.628 13.7541 114.336 12.845C116.741 12.2459 119.263 12.2942 121.644 12.9848C124.025 13.6755 126.181 14.9838 127.893 16.7772C131.278 20.0707 133.388 24.4564 133.848 29.1568C133.962 30.1742 133.997 31.1685 134.054 31.9001ZM107.534 31.6944C107.683 33.2033 107.843 35.8096 108.255 38.3816C108.551 39.8884 108.995 41.3623 109.581 42.7823C109.737 43.2181 110.053 43.5784 110.464 43.7906C110.876 44.0027 111.352 44.0509 111.798 43.9254C112.602 43.8223 113.395 43.6424 114.164 43.3881C119.169 41.424 123.806 38.6301 127.881 35.1237C128.707 34.4277 129.471 33.6629 130.167 32.8375C130.945 31.9345 130.91 31.3631 130.167 30.4029C129.882 30.0223 129.564 29.6665 129.219 29.3396C126.456 26.7832 123.384 24.5828 120.074 22.7898C117.842 21.4387 115.439 20.393 112.93 19.6806C110.392 19.0291 109.352 19.6007 108.563 22.0812C107.717 24.836 107.649 27.7165 107.534 31.6944Z" fill="white"/>
<path d="M68.2577 32.8144C68.1831 28.7805 69.0728 24.7872 70.8526 21.1664C71.828 19.1027 73.2947 17.3095 75.1242 15.9444C76.9536 14.5793 79.09 13.6837 81.3461 13.3362C86.3985 12.5246 90.9365 13.5533 94.4343 17.5884C95.5906 18.7673 96.3156 20.3018 96.4919 21.9436C96.5852 22.557 96.4661 23.1841 96.1543 23.7205C95.8424 24.2569 95.3565 24.6705 94.7773 24.8929C94.1922 25.1486 93.5392 25.2043 92.9192 25.0514C92.2993 24.8985 91.7471 24.5454 91.348 24.047C90.9016 23.3945 90.4895 22.7191 90.1135 22.0237C89.5865 21.0981 89.0103 20.2013 88.3874 19.3374C86.2042 16.5825 82.2262 16.4682 79.4257 18.1943C78.2372 18.9579 77.2114 19.949 76.4071 21.1103C75.6028 22.2716 75.0359 23.5804 74.739 24.9615C73.2732 30.1231 73.77 35.6444 76.1336 40.4615C77.2642 42.9196 79.3175 44.8335 81.849 45.7885C83.5436 46.42 85.3948 46.4979 87.1365 46.0112C88.8782 45.5244 90.4207 44.4979 91.5423 43.0792C92.5139 41.9361 93.2912 40.5987 94.1486 39.3413C94.2776 39.1006 94.471 38.9006 94.7072 38.7634C94.9433 38.6261 95.2129 38.5571 95.486 38.5641C95.6573 38.5564 95.8285 38.5833 95.9891 38.6436C96.1497 38.7039 96.2964 38.7963 96.4203 38.9149C96.5443 39.0335 96.6429 39.176 96.7102 39.3338C96.7775 39.4916 96.8121 39.6615 96.812 39.833C96.8416 40.5554 96.7724 41.2783 96.6062 41.9819C95.9042 44.5974 94.4306 46.9407 92.3773 48.7064C90.3241 50.4722 87.7865 51.5784 85.0954 51.8809C82.0947 52.2747 79.0473 51.6842 76.411 50.1981C73.7747 48.7119 71.6918 46.4104 70.4753 43.6393C69.2922 41.1556 68.5828 38.4731 68.3835 35.7293C68.3721 34.7577 68.3263 33.786 68.2577 32.8144Z" fill="white"/>
<path d="M4.93148 30.5168C4.93148 26.2645 4.93148 22.0238 4.93148 17.7715C4.93148 17.1314 4.73716 16.96 4.1199 16.9828C2.97681 16.9828 1.89087 16.9828 0.78208 16.9828C0.233401 16.9828 -0.0180692 16.7426 0.00479245 16.2053C0.0276541 15.6681 0.00479245 15.2909 0.00479245 14.8337C-0.00874525 14.7088 0.006489 14.5823 0.0493395 14.4642C0.0921899 14.3461 0.161499 14.2394 0.251981 14.1522C0.342463 14.065 0.451722 13.9997 0.571345 13.9613C0.690969 13.9229 0.817809 13.9124 0.942128 13.9306C2.0052 13.9306 3.07968 13.9306 4.14275 13.9306C4.72572 13.9306 4.94289 13.805 4.92003 13.1763C4.92003 11.8617 4.92003 10.5472 4.92003 9.2327C4.89619 8.89072 4.94957 8.54772 5.07621 8.22916C5.20284 7.91059 5.3995 7.6245 5.65162 7.39222C7.02332 6.13482 8.40644 4.88888 9.82387 3.68864C9.95085 3.58749 10.0991 3.51637 10.2575 3.48073C10.4159 3.44509 10.5803 3.44595 10.7383 3.48296C10.9326 3.56298 11.1041 3.99728 11.1156 4.27162C11.1156 7.06074 11.1156 9.86139 11.1156 12.6505C11.1156 14.2051 11.1155 13.9077 12.3844 13.9192H17.6311C18.3741 13.9192 18.5456 14.1021 18.557 14.8451C18.6142 17.4056 18.4084 16.9485 16.4652 16.9714C14.922 16.9714 13.3789 16.9714 11.8357 16.9714C11.3099 16.9714 11.1041 17.1084 11.1041 17.6571C11.1041 25.0985 11.1041 32.5172 11.1041 39.993C11.0982 41.1735 11.167 42.3533 11.3099 43.5252C11.3516 44.1844 11.5246 44.8286 11.8187 45.4201C12.1128 46.0116 12.5221 46.5386 13.0225 46.9698C13.5229 47.401 14.1044 47.7277 14.7329 47.9312C15.3614 48.1346 16.0242 48.2106 16.6824 48.1544C17.1853 48.1544 17.6883 48.1544 18.1912 48.1544C18.4851 48.0931 18.7913 48.1501 19.0437 48.3127C19.296 48.4752 19.4743 48.7303 19.5401 49.0232C19.6581 49.3131 19.6637 49.6366 19.5559 49.9305C19.4481 50.2243 19.2346 50.4675 18.9571 50.6122C18.2148 51.037 17.4135 51.3491 16.5795 51.5382C13.9011 52.1823 11.0776 51.7731 8.69223 50.3951C7.61917 49.8029 6.71743 48.9431 6.07452 47.8996C5.43161 46.8562 5.06934 45.6642 5.02291 44.4394C4.84001 40.5758 4.89717 36.6894 4.85145 32.8029L4.93148 30.5168Z" fill="white"/>
<path d="M27.0276 34.7118C27.0276 29.9338 27.0276 25.1674 27.0276 20.4007C27.0276 19.612 27.0848 18.8117 27.1648 18.023C27.2048 17.5794 27.3474 17.1512 27.5815 16.7722C27.8157 16.3933 28.1348 16.0741 28.5137 15.8398C30.3527 14.7585 32.3756 14.026 34.4806 13.6792C36.9253 13.1642 39.4286 12.9835 41.922 13.142C43.3809 13.1568 44.8108 13.5508 46.0714 14.2851C46.7217 14.6916 47.217 15.3043 47.4781 16.0254C47.7392 16.7465 47.751 17.5344 47.5117 18.263C47.3615 18.7075 47.102 19.1073 46.7571 19.4254C46.4122 19.7434 45.9929 19.9696 45.5378 20.0834C45.0826 20.1972 44.6061 20.1948 44.1521 20.0764C43.6981 19.9581 43.2811 19.7276 42.9394 19.4061C42.345 18.846 41.7963 18.263 41.2019 17.68C40.4108 17.0095 39.4418 16.5834 38.4128 16.4535C37.3839 16.3236 36.3394 16.4956 35.4065 16.9486C34.8694 17.2494 34.4164 17.6801 34.0889 18.2013C33.7614 18.7225 33.5699 19.3175 33.5318 19.9319C33.4405 20.7211 33.3947 21.5151 33.3946 22.3096C33.3946 31.3704 33.3946 40.4313 33.3946 49.4921C33.4118 49.7433 33.4118 49.9953 33.3946 50.2464C33.3935 50.3551 33.3699 50.4624 33.3253 50.5615C33.2808 50.6606 33.2162 50.7495 33.1357 50.8224C33.0552 50.8954 32.9605 50.9508 32.8576 50.9854C32.7546 51.0201 32.6456 51.0331 32.5373 51.0237H28.0336C27.9259 51.0348 27.8172 51.0235 27.7142 50.9902C27.6112 50.9569 27.5164 50.9024 27.4357 50.8303C27.355 50.7582 27.2902 50.6701 27.2455 50.5716C27.2009 50.473 27.1773 50.3661 27.1763 50.2579C27.1326 49.9433 27.1059 49.6265 27.0962 49.309L27.0276 34.7118Z" fill="white"/>
<path d="M140.73 34.5178C140.73 29.7969 140.73 25.0647 140.73 20.3437C140.73 19.555 140.787 18.7548 140.856 17.966C140.903 17.4855 141.07 17.0244 141.342 16.6251C141.613 16.2258 141.981 15.9008 142.41 15.6799C144.187 14.6872 146.12 14.0031 148.125 13.6566C150.543 13.1152 153.029 12.9418 155.498 13.1423C156.803 13.2513 158.083 13.5598 159.293 14.0568C160.079 14.3621 160.715 14.9609 161.067 15.7268C161.419 16.4926 161.459 17.3652 161.18 18.1603C161.051 18.6194 160.808 19.0383 160.472 19.377C160.137 19.7158 159.72 19.9631 159.262 20.0959C158.805 20.2287 158.32 20.2425 157.856 20.1358C157.391 20.0291 156.961 19.8057 156.607 19.4864C156.036 18.972 155.544 18.3434 154.984 17.8405C154.235 17.1292 153.291 16.6586 152.272 16.4895C151.253 16.3203 150.207 16.4605 149.269 16.8916C148.704 17.1406 148.216 17.5376 147.858 18.0405C147.5 18.5435 147.284 19.1339 147.234 19.7493C147.127 20.376 147.077 21.011 147.085 21.6467C147.085 30.8828 147.085 40.1266 147.085 49.3779C147.103 49.6482 147.103 49.9192 147.085 50.1895C147.085 50.3155 147.058 50.44 147.005 50.5545C146.952 50.669 146.876 50.771 146.78 50.8534C146.685 50.9357 146.573 50.9966 146.452 51.032C146.331 51.0674 146.204 51.0762 146.079 51.0582C144.719 51.0582 143.359 51.0582 141.999 51.0582C141.038 51.0582 140.798 50.8184 140.798 49.8353C140.798 47.7435 140.798 45.6628 140.798 43.571L140.73 34.5178Z" fill="white"/>
<path d="M53.8671 32.5629V15.1309C53.8671 14.1021 54.0157 13.9878 55.0102 13.9878H58.9767C59.8683 13.9878 60.1198 14.2278 60.1198 15.1309C60.1198 15.7481 60.1198 16.3655 60.1198 16.9714V49.4005C60.1198 51.1265 60.1198 51.138 58.3709 51.138H54.9416C53.9129 51.138 53.7986 51.0809 53.7986 50.0635L53.8671 32.5629Z" fill="white"/>
<path d="M57.0562 0.00816797C57.5417 -0.024927 58.0289 0.0427937 58.4871 0.206868C58.9453 0.370942 59.3647 0.627685 59.7188 0.961481C60.073 1.29528 60.3544 1.69874 60.5454 2.14642C60.7363 2.5941 60.8326 3.07632 60.8283 3.563C60.8589 4.07208 60.7828 4.58205 60.6047 5.05995C60.4266 5.53784 60.1506 5.97319 59.7943 6.3381C59.438 6.703 59.0093 6.9895 58.5358 7.17895C58.0623 7.36839 57.5544 7.45666 57.0447 7.4382C56.0594 7.4382 55.1145 7.0468 54.4178 6.3501C53.7211 5.6534 53.3297 4.70847 53.3297 3.72319C53.3297 2.7379 53.7211 1.79297 54.4178 1.09627C55.1145 0.399572 56.0594 0.00816797 57.0447 0.00816797H57.0562Z" fill="white"/>
</svg>
