<svg width="180" height="74" viewBox="0 0 180 74" fill="none" xmlns="http://www.w3.org/2000/svg">
<path d="M115.771 45.2261H127.423C127.979 45.2261 128.524 45.2261 129.08 45.2261C131.529 45.353 133.859 46.3281 135.668 47.984C136.656 48.9055 137.336 50.108 137.617 51.4289C138.16 53.4832 137.901 55.6674 136.892 57.5374C136.185 58.7839 135.137 59.8025 133.871 60.474C132.884 61.017 131.821 61.4075 130.718 61.6319L130.294 61.7259C130.99 62.6671 131.706 63.6083 132.402 64.5496L134.548 67.3733L136.666 70.1969L138.812 73.0206C138.727 73.0492 138.638 73.0682 138.549 73.0772H135.245C135.147 73.077 135.051 73.0496 134.968 72.9981C134.885 72.9466 134.818 72.8728 134.774 72.7853L128.43 64.3143L127.037 62.4318C126.991 62.3524 126.923 62.2875 126.841 62.2443C126.76 62.2011 126.668 62.1813 126.576 62.1871H119.122H118.839C118.839 62.6953 118.839 63.2037 118.839 63.7025C118.839 64.2014 118.839 64.7284 118.839 65.2461V72.9829H115.752L115.771 45.2261ZM118.867 59.4576H119.112C122.077 59.4576 125.042 59.4576 127.997 59.4576C129.191 59.4512 130.368 59.1778 131.442 58.6574C132.167 58.3436 132.812 57.8712 133.33 57.275C133.848 56.6788 134.226 55.9741 134.435 55.2126C134.606 54.5845 134.669 53.9322 134.624 53.2831C134.606 52.4079 134.35 51.5541 133.884 50.813C133.418 50.0719 132.76 49.4715 131.979 49.0758C130.8 48.4561 129.489 48.133 128.157 48.1346C125.164 48.1346 122.162 48.1346 119.169 48.1346H118.867V59.4576Z" fill="white"/>
<path d="M76.54 73.1436V45.2549H76.8318C80.2014 45.2549 83.5616 45.189 86.9218 45.2549C90.527 45.2698 94.0009 46.6098 96.6823 49.0198C98.8966 50.9925 100.363 53.6687 100.833 56.5967C101.325 59.229 101.064 61.9468 100.08 64.4373C98.9456 67.3416 96.8178 69.7495 94.0752 71.2329C92.2694 72.2425 90.2715 72.8613 88.2113 73.0494C87.6183 73.1059 87.0159 73.1436 86.423 73.1436H76.54ZM79.6649 70.2446H79.9002C82.178 70.2446 84.4557 70.2446 86.7241 70.2446C88.1532 70.224 89.5676 69.9531 90.9032 69.4444C92.2819 68.9581 93.5401 68.1812 94.5924 67.1663C95.6447 66.1513 96.4666 64.922 97.0024 63.5618C97.8751 61.3894 98.0687 59.0036 97.5577 56.719C97.2694 55.1702 96.6277 53.709 95.6825 52.4488C94.7373 51.1885 93.5141 50.1631 92.108 49.4527C90.4342 48.5888 88.5795 48.1341 86.6959 48.1257C84.4558 48.1257 82.225 48.1257 79.9849 48.1257H79.6649V70.2446Z" fill="white"/>
<path d="M40.1143 45.2354H60.266C60.266 46.1766 60.266 47.1178 60.266 48.059H43.2203V57.6127H58.4494C58.4494 58.5539 58.4494 59.4951 58.4494 60.4364H58.0353H43.2203V70.2062C44.0392 70.2062 44.858 70.2062 45.6769 70.2062H60.4731V73.0299C60.1907 73.1052 40.6037 73.1334 40.133 73.0299L40.1143 45.2354Z" fill="white"/>
<path d="M180.001 73.1147H179.652C178.711 73.1147 177.873 73.1147 176.989 73.1147C176.879 73.1275 176.768 73.1002 176.676 73.038C176.585 72.9758 176.518 72.8827 176.49 72.7758C175.549 70.5545 174.551 68.3425 173.572 66.1212L173.393 65.7354H172.97C168.169 65.7354 163.369 65.7354 158.569 65.7354C158.436 65.7185 158.303 65.749 158.191 65.8213C158.079 65.8937 157.996 66.0031 157.957 66.1306C157.016 68.3237 155.999 70.5168 155.02 72.7192C154.964 72.8416 154.898 72.9641 154.832 73.1147H151.632C155.88 63.7024 160.115 54.3402 164.338 45.0283H167.294L180.001 73.1147ZM165.826 48.7461H165.741C163.626 53.4523 161.508 58.1584 159.388 62.8646C159.858 62.9587 171.84 62.9305 172.122 62.8646L165.826 48.7461Z" fill="white"/>
<path d="M76.5488 2.82369V0H99.0348C99.0348 0.094123 99.0348 0.197714 99.0348 0.291837C99.0348 0.762452 99.0348 1.23308 99.0348 1.7131C99.0467 1.94909 98.9695 2.18086 98.8184 2.3625C96.0386 5.8576 93.2714 9.35598 90.5167 12.8574L81.1044 24.8298L80.7844 25.2439C82.055 25.2439 83.2598 25.2439 84.4552 25.2439C85.6505 25.2439 86.8836 25.2439 88.0977 25.2439H99.0631V28.0676H76.5677C76.5677 27.9075 76.5677 27.757 76.5677 27.6158C76.5677 27.1922 76.5677 26.7594 76.5677 26.3358C76.5558 26.0999 76.633 25.8679 76.7841 25.6862L87.853 11.6431C90.0618 8.81944 92.2768 5.99575 94.4981 3.17206L94.7522 2.83311C94.6656 2.81152 94.5775 2.79598 94.4887 2.78624H76.6053L76.5488 2.82369Z" fill="white"/>
<path d="M22.899 70.3383V73.1149H0.601301C0.601301 73.002 0.601301 72.9078 0.601301 72.8042C0.601301 72.3618 0.601301 71.9101 0.601301 71.4583C0.591161 71.1843 0.689237 70.9171 0.874294 70.7147L18.3812 48.4733L18.6729 48.0875L18.4 48.031H1.24139C1.16508 47.107 1.16508 46.1784 1.24139 45.2544H22.8897C22.8897 45.3579 22.8897 45.471 22.8897 45.5745C22.8897 46.0357 22.8897 46.5157 22.8897 46.9675C22.8966 47.2015 22.816 47.4296 22.6637 47.6075L16.8658 55.0339L5.12867 69.9334L4.83684 70.3195C6.09809 70.3195 7.2935 70.3195 8.47945 70.3195H22.9085L22.899 70.3383Z" fill="white"/>
<path d="M99.0639 7.00302V8.88548C99.0639 9.65729 99.0639 10.4385 99.0639 11.2103C99.078 11.4584 98.9934 11.702 98.8286 11.8879L93.0965 19.1542C93.0023 19.2672 92.9176 19.3895 92.7858 19.5589C93.36 19.5589 93.8683 19.5589 94.3672 19.5589H99.0733V22.3826H86.8467L98.9792 6.96533L99.0639 7.00302Z" fill="white"/>
<path d="M76.54 20.9424C76.54 20.8295 76.54 20.7072 76.54 20.5849C76.54 19.3142 76.54 18.0341 76.54 16.7634C76.5293 16.513 76.6133 16.2677 76.7753 16.0763L82.4227 8.95116L82.7238 8.53707H76.6529C76.5526 7.59851 76.5526 6.65193 76.6529 5.71338H88.7383L76.6905 20.9518L76.54 20.9424Z" fill="white"/>
</svg>
